<svg width="16" height="12" viewBox="0 0 16 12" fill="none" xmlns="http://www.w3.org/2000/svg">
<mask id="path-1-inside-1_59_4" fill="white">
<path d="M9.61116 6.08902C9.55266 6.03191 9.46756 6.00333 9.35581 6.00333H8.97856V6.74489H9.35581C9.46756 6.74489 9.55266 6.71635 9.61116 6.65916C9.66956 6.60205 9.69881 6.50707 9.69881 6.37411C9.69881 6.24121 9.66956 6.1462 9.61116 6.08902Z"/>
<path d="M0 1.31617V10.6838C0 11.4096 0.564344 12 1.25806 12H3.14919V3.26463e-05H1.25806C0.564344 3.26463e-05 0 0.590444 0 1.31617Z"/>
<path d="M14.7419 0H4.08725V1.96007H16V1.31617C16 0.590411 15.4357 0 14.7419 0Z"/>
<path d="M4.08725 2.9414V12H14.7419C15.4357 12 16 11.4096 16 10.6838V2.9414H4.08725ZM7.15328 7.85715C7.22434 7.85715 7.28344 7.84522 7.33047 7.82125C7.37744 7.79735 7.41106 7.76084 7.43144 7.7116C7.45172 7.66246 7.46509 7.62189 7.47147 7.59001C7.47778 7.55807 7.4835 7.51429 7.48859 7.45845C7.49872 7.3336 7.59656 7.27109 7.782 7.27109C7.89122 7.27109 7.96872 7.29169 8.01447 7.33288C8.06019 7.37414 8.08303 7.45188 8.08303 7.56611C8.08303 7.82393 7.99347 8.02729 7.81438 8.17608C7.63528 8.32499 7.40597 8.39934 7.12656 8.39934C6.85469 8.39934 6.63431 8.32362 6.46541 8.17209C6.29644 8.02059 6.21197 7.78277 6.21197 7.45849V6.40203C6.21197 6.07778 6.29644 5.83987 6.46541 5.68843C6.63431 5.53693 6.85469 5.46121 7.12656 5.46121C7.406 5.46121 7.63528 5.53163 7.81438 5.67251C7.99347 5.81342 8.08303 6.00739 8.08303 6.25455C8.08303 6.36888 8.06019 6.44659 8.01447 6.48779C7.96872 6.52905 7.89253 6.54958 7.78581 6.54958C7.59528 6.54958 7.49619 6.4872 7.48859 6.36221C7.48097 6.12299 7.36791 6.0034 7.14944 6.0034C6.92078 6.0034 6.80647 6.1363 6.80647 6.4021V7.45855C6.80647 7.72425 6.92203 7.85715 7.15328 7.85715ZM10.1961 8.29567C10.1161 8.36481 10.0316 8.39934 9.94269 8.39934C9.85372 8.39934 9.79025 8.36083 9.75216 8.28374L9.23013 7.22326H8.97859V8.18409C8.97859 8.24525 8.94938 8.29243 8.89094 8.32558C8.83247 8.35886 8.76263 8.37541 8.68134 8.37541C8.6 8.37541 8.53016 8.35883 8.47175 8.32558C8.41328 8.29237 8.38409 8.24525 8.38409 8.18409V5.64851C8.38409 5.59807 8.40122 5.55419 8.43556 5.51699C8.46988 5.47978 8.51366 5.46118 8.56703 5.46118H9.35584C9.98078 5.46118 10.2933 5.74558 10.2933 6.31431C10.2933 6.72893 10.1395 6.99875 9.83219 7.12361L10.2971 8.0047C10.3098 8.0233 10.3161 8.04726 10.3161 8.07643C10.3161 8.15355 10.2761 8.22662 10.1961 8.29567ZM12.8235 8.32558C12.7651 8.35886 12.6952 8.37541 12.6139 8.37541C12.5326 8.37541 12.4627 8.35883 12.4043 8.32558C12.3459 8.29237 12.3167 8.24525 12.3167 8.18409V6.68905L11.9508 7.34285C11.9076 7.41994 11.8416 7.45845 11.7527 7.45845C11.6663 7.45845 11.6041 7.41994 11.566 7.34285L11.2039 6.64916V8.18409C11.2039 8.24525 11.1747 8.29243 11.1163 8.32558C11.0578 8.35886 10.988 8.37541 10.9067 8.37541C10.8253 8.37541 10.7555 8.35883 10.6971 8.32558C10.6386 8.29237 10.6094 8.24525 10.6094 8.18409V5.77213C10.6094 5.66584 10.638 5.58744 10.6952 5.53693C10.7523 5.48645 10.8228 5.46121 10.9067 5.46121C11.021 5.46121 11.108 5.47913 11.1677 5.51502C11.2274 5.55092 11.2941 5.63664 11.3678 5.77216L11.7603 6.48975L12.1528 5.77216C12.2264 5.63661 12.2931 5.55086 12.3528 5.51502C12.4125 5.47913 12.4996 5.46121 12.6139 5.46121C12.6977 5.46121 12.7682 5.48645 12.8254 5.53693C12.8825 5.58744 12.9111 5.66584 12.9111 5.77213V8.18409C12.9112 8.24522 12.8819 8.2924 12.8235 8.32558Z"/>
</mask>
<path d="M9.61116 6.08902C9.55266 6.03191 9.46756 6.00333 9.35581 6.00333H8.97856V6.74489H9.35581C9.46756 6.74489 9.55266 6.71635 9.61116 6.65916C9.66956 6.60205 9.69881 6.50707 9.69881 6.37411C9.69881 6.24121 9.66956 6.1462 9.61116 6.08902Z" fill="#E2087D"/>
<path d="M0 1.31617V10.6838C0 11.4096 0.564344 12 1.25806 12H3.14919V3.26463e-05H1.25806C0.564344 3.26463e-05 0 0.590444 0 1.31617Z" fill="#E2087D"/>
<path d="M14.7419 0H4.08725V1.96007H16V1.31617C16 0.590411 15.4357 0 14.7419 0Z" fill="#E2087D"/>
<path d="M4.08725 2.9414V12H14.7419C15.4357 12 16 11.4096 16 10.6838V2.9414H4.08725ZM7.15328 7.85715C7.22434 7.85715 7.28344 7.84522 7.33047 7.82125C7.37744 7.79735 7.41106 7.76084 7.43144 7.7116C7.45172 7.66246 7.46509 7.62189 7.47147 7.59001C7.47778 7.55807 7.4835 7.51429 7.48859 7.45845C7.49872 7.3336 7.59656 7.27109 7.782 7.27109C7.89122 7.27109 7.96872 7.29169 8.01447 7.33288C8.06019 7.37414 8.08303 7.45188 8.08303 7.56611C8.08303 7.82393 7.99347 8.02729 7.81438 8.17608C7.63528 8.32499 7.40597 8.39934 7.12656 8.39934C6.85469 8.39934 6.63431 8.32362 6.46541 8.17209C6.29644 8.02059 6.21197 7.78277 6.21197 7.45849V6.40203C6.21197 6.07778 6.29644 5.83987 6.46541 5.68843C6.63431 5.53693 6.85469 5.46121 7.12656 5.46121C7.406 5.46121 7.63528 5.53163 7.81438 5.67251C7.99347 5.81342 8.08303 6.00739 8.08303 6.25455C8.08303 6.36888 8.06019 6.44659 8.01447 6.48779C7.96872 6.52905 7.89253 6.54958 7.78581 6.54958C7.59528 6.54958 7.49619 6.4872 7.48859 6.36221C7.48097 6.12299 7.36791 6.0034 7.14944 6.0034C6.92078 6.0034 6.80647 6.1363 6.80647 6.4021V7.45855C6.80647 7.72425 6.92203 7.85715 7.15328 7.85715ZM10.1961 8.29567C10.1161 8.36481 10.0316 8.39934 9.94269 8.39934C9.85372 8.39934 9.79025 8.36083 9.75216 8.28374L9.23013 7.22326H8.97859V8.18409C8.97859 8.24525 8.94938 8.29243 8.89094 8.32558C8.83247 8.35886 8.76263 8.37541 8.68134 8.37541C8.6 8.37541 8.53016 8.35883 8.47175 8.32558C8.41328 8.29237 8.38409 8.24525 8.38409 8.18409V5.64851C8.38409 5.59807 8.40122 5.55419 8.43556 5.51699C8.46988 5.47978 8.51366 5.46118 8.56703 5.46118H9.35584C9.98078 5.46118 10.2933 5.74558 10.2933 6.31431C10.2933 6.72893 10.1395 6.99875 9.83219 7.12361L10.2971 8.0047C10.3098 8.0233 10.3161 8.04726 10.3161 8.07643C10.3161 8.15355 10.2761 8.22662 10.1961 8.29567ZM12.8235 8.32558C12.7651 8.35886 12.6952 8.37541 12.6139 8.37541C12.5326 8.37541 12.4627 8.35883 12.4043 8.32558C12.3459 8.29237 12.3167 8.24525 12.3167 8.18409V6.68905L11.9508 7.34285C11.9076 7.41994 11.8416 7.45845 11.7527 7.45845C11.6663 7.45845 11.6041 7.41994 11.566 7.34285L11.2039 6.64916V8.18409C11.2039 8.24525 11.1747 8.29243 11.1163 8.32558C11.0578 8.35886 10.988 8.37541 10.9067 8.37541C10.8253 8.37541 10.7555 8.35883 10.6971 8.32558C10.6386 8.29237 10.6094 8.24525 10.6094 8.18409V5.77213C10.6094 5.66584 10.638 5.58744 10.6952 5.53693C10.7523 5.48645 10.8228 5.46121 10.9067 5.46121C11.021 5.46121 11.108 5.47913 11.1677 5.51502C11.2274 5.55092 11.2941 5.63664 11.3678 5.77216L11.7603 6.48975L12.1528 5.77216C12.2264 5.63661 12.2931 5.55086 12.3528 5.51502C12.4125 5.47913 12.4996 5.46121 12.6139 5.46121C12.6977 5.46121 12.7682 5.48645 12.8254 5.53693C12.8825 5.58744 12.9111 5.66584 12.9111 5.77213V8.18409C12.9112 8.24522 12.8819 8.2924 12.8235 8.32558Z" fill="#E2087D"/>
<path d="M9.61116 6.08902L10.3107 5.37446L10.3097 5.3735L9.61116 6.08902ZM8.97856 6.00333V5.00333H7.97856V6.00333H8.97856ZM8.97856 6.74489H7.97856V7.74489H8.97856V6.74489ZM9.61116 6.65916L10.3102 7.37429L10.3103 7.37413L9.61116 6.65916ZM3.14919 12V13H4.14919V12H3.14919ZM3.14919 3.26463e-05H4.14919V-0.999967H3.14919V3.26463e-05ZM4.08725 0V-1H3.08725V0H4.08725ZM4.08725 1.96007H3.08725V2.96007H4.08725V1.96007ZM16 1.96007V2.96007H17V1.96007H16ZM4.08725 2.9414V1.9414H3.08725V2.9414H4.08725ZM4.08725 12H3.08725V13H4.08725V12ZM16 2.9414H17V1.9414H16V2.9414ZM7.33047 7.82125L6.87697 6.92999L6.87647 6.93025L7.33047 7.82125ZM7.43144 7.7116L8.35545 8.09397L8.3558 8.09312L7.43144 7.7116ZM7.47147 7.59001L8.45205 7.78612L8.45249 7.78389L7.47147 7.59001ZM7.48859 7.45845L8.48451 7.5493L8.48532 7.53928L7.48859 7.45845ZM8.01447 7.33288L8.68444 6.59049L8.6836 6.58974L8.01447 7.33288ZM7.81438 8.17608L7.17535 7.40689L7.17502 7.40717L7.81438 8.17608ZM6.46541 8.17209L7.1332 7.42774L7.13298 7.42754L6.46541 8.17209ZM6.46541 5.68843L7.13282 6.43312L7.13312 6.43285L6.46541 5.68843ZM7.81438 5.67251L8.43272 4.8866L8.43263 4.88653L7.81438 5.67251ZM8.01447 6.48779L7.34508 5.74487L7.34475 5.74517L8.01447 6.48779ZM7.48859 6.36221L6.4891 6.39407L6.48956 6.40847L6.49043 6.42286L7.48859 6.36221ZM6.80647 7.45855H7.80647H6.80647ZM10.1961 8.29567L9.5427 7.53865L9.54217 7.53911L10.1961 8.29567ZM9.75216 8.28374L8.85497 8.72539L8.85564 8.72674L9.75216 8.28374ZM9.23013 7.22326L10.1273 6.78161L9.85246 6.22326H9.23013V7.22326ZM8.97859 7.22326V6.22326H7.97859V7.22326H8.97859ZM8.89094 8.32558L8.39751 7.45579L8.39624 7.45652L8.89094 8.32558ZM8.47175 8.32558L8.96648 7.45653L8.96571 7.4561L8.47175 8.32558ZM8.43556 5.51699L9.17036 6.19527L9.17067 6.19494L8.43556 5.51699ZM9.83219 7.12361L9.45582 6.19714L8.4321 6.61302L8.94776 7.59028L9.83219 7.12361ZM10.2971 8.0047L9.41266 8.47137L9.4388 8.5209L9.4703 8.5672L10.2971 8.0047ZM10.3161 8.07643H11.3161H10.3161ZM12.8235 8.32558L12.3295 7.45612L12.3288 7.45652L12.8235 8.32558ZM12.4043 8.32558L12.8991 7.45653L12.8983 7.4561L12.4043 8.32558ZM12.3167 6.68905H13.3167V2.85405L11.444 6.20074L12.3167 6.68905ZM11.9508 7.34285L12.8231 7.83186L12.8235 7.83116L11.9508 7.34285ZM11.566 7.34285L12.4625 6.89985L12.4576 6.88996L12.4525 6.88018L11.566 7.34285ZM11.2039 6.64916L12.0905 6.18649L10.2039 6.64916H11.2039ZM11.1163 8.32558L10.6227 7.45591L10.6216 7.45652L11.1163 8.32558ZM10.6971 8.32558L11.1918 7.45653L11.1911 7.4561L10.6971 8.32558ZM10.6952 5.53693L10.0332 4.7874L10.0332 4.78743L10.6952 5.53693ZM11.1677 5.51502L11.6833 4.65819L11.6829 4.65795L11.1677 5.51502ZM11.3678 5.77216L10.4893 6.25002L10.4904 6.25204L11.3678 5.77216ZM11.7603 6.48975L10.8829 6.96962L11.7603 8.57362L12.6376 6.96962L11.7603 6.48975ZM12.1528 5.77216L13.0301 6.25204L13.0315 6.24946L12.1528 5.77216ZM12.3528 5.51502L12.8673 6.37251L12.8684 6.37186L12.3528 5.51502ZM12.8254 5.53693L13.4876 4.78761L13.4873 4.7874L12.8254 5.53693ZM12.9111 8.18409H11.9111L11.9111 8.1846L12.9111 8.18409ZM10.3097 5.3735C10.0047 5.07568 9.63116 5.00333 9.35581 5.00333V7.00333C9.30396 7.00333 9.10061 6.98814 8.91257 6.80455L10.3097 5.3735ZM9.35581 5.00333H8.97856V7.00333H9.35581V5.00333ZM7.97856 6.00333V6.74489H9.97856V6.00333H7.97856ZM8.97856 7.74489H9.35581V5.74489H8.97856V7.74489ZM9.35581 7.74489C9.63088 7.74489 10.0049 7.67271 10.3102 7.37429L8.91216 5.94404C9.10046 5.75998 9.30424 5.74489 9.35581 5.74489V7.74489ZM10.3103 7.37413C10.652 7.04003 10.6988 6.61485 10.6988 6.37411H8.69881C8.69881 6.37222 8.69843 6.3247 8.72109 6.25105C8.74505 6.17317 8.79869 6.055 8.91199 5.9442L10.3103 7.37413ZM10.6988 6.37411C10.6988 6.13321 10.6519 5.70844 10.3107 5.37446L8.91159 6.80359C8.79854 6.69292 8.745 6.57494 8.72108 6.49715C8.69845 6.42358 8.69881 6.37609 8.69881 6.37411H10.6988ZM-1 1.31617V10.6838H1V1.31617H-1ZM-1 10.6838C-1 11.9188 -0.0300152 13 1.25806 13V11C1.1587 11 1 10.9003 1 10.6838H-1ZM1.25806 13H3.14919V11H1.25806V13ZM4.14919 12V3.26463e-05H2.14919V12H4.14919ZM3.14919 -0.999967H1.25806V1.00003H3.14919V-0.999967ZM1.25806 -0.999967C-0.0299999 -0.999967 -1 0.0811776 -1 1.31617H1C1 1.09971 1.15869 1.00003 1.25806 1.00003V-0.999967ZM14.7419 -1H4.08725V1H14.7419V-1ZM3.08725 0V1.96007H5.08725V0H3.08725ZM4.08725 2.96007H16V0.96007H4.08725V2.96007ZM17 1.96007V1.31617H15V1.96007H17ZM17 1.31617C17 0.0811619 16.03 -1 14.7419 -1V1C14.8413 1 15 1.09966 15 1.31617H17ZM3.08725 2.9414V12H5.08725V2.9414H3.08725ZM4.08725 13H14.7419V11H4.08725V13ZM14.7419 13C16.03 13 17 11.9188 17 10.6838H15C15 10.9003 14.8413 11 14.7419 11V13ZM17 10.6838V2.9414H15V10.6838H17ZM16 1.9414H4.08725V3.9414H16V1.9414ZM7.15328 8.85715C7.32928 8.85715 7.55626 8.82854 7.78447 8.71225L6.87647 6.93025C7.01061 6.8619 7.11941 6.85715 7.15328 6.85715V8.85715ZM7.78396 8.71251C8.04601 8.57918 8.24503 8.3608 8.35545 8.09397L6.50743 7.32923C6.5389 7.25318 6.58682 7.17291 6.65529 7.09855C6.72387 7.02407 6.80098 6.96866 6.87697 6.92999L7.78396 8.71251ZM8.3558 8.09312C8.38716 8.01713 8.4275 7.90886 8.45205 7.78612L6.49089 7.3939C6.49762 7.36026 6.50463 7.33828 6.50686 7.33152C6.50942 7.32372 6.51008 7.32281 6.50708 7.33008L8.3558 8.09312ZM8.45249 7.78389C8.46858 7.7025 8.47806 7.61946 8.48446 7.5493L6.49273 7.36761C6.49107 7.38583 6.4897 7.39761 6.48887 7.40401C6.48847 7.40706 6.48831 7.40797 6.48846 7.40702C6.4886 7.40616 6.48921 7.40235 6.49044 7.39614L8.45249 7.78389ZM8.48532 7.53928C8.47779 7.63217 8.45026 7.75225 8.37908 7.87577C8.30653 8.00169 8.20856 8.09639 8.10781 8.16073C8.01212 8.22184 7.92652 8.24791 7.87477 8.25933C7.82307 8.27073 7.78915 8.27109 7.782 8.27109V6.27109C7.6023 6.27109 7.31039 6.29692 7.0313 6.47517C6.69555 6.6896 6.51989 7.0321 6.49187 7.37763L8.48532 7.53928ZM7.782 8.27109C7.77888 8.27109 7.73425 8.27134 7.66516 8.25298C7.59547 8.23446 7.4704 8.18863 7.34534 8.07602L8.6836 6.58974C8.35688 6.29555 7.96503 6.27109 7.782 6.27109V8.27109ZM7.3445 8.07527C7.19327 7.93879 7.13107 7.7878 7.10648 7.70413C7.08248 7.62248 7.08303 7.56867 7.08303 7.56611H9.08303C9.08303 7.39029 9.06197 6.9312 8.68444 6.59049L7.3445 8.07527ZM7.08303 7.56611C7.08303 7.57831 7.08127 7.55301 7.1007 7.5089C7.12137 7.46197 7.15161 7.42662 7.17535 7.40689L8.4534 8.94526C8.88757 8.58456 9.08303 8.08514 9.08303 7.56611H7.08303ZM7.17502 7.40717C7.1798 7.40319 7.18535 7.39941 7.19091 7.39637C7.1964 7.39337 7.19969 7.39229 7.19943 7.39238C7.19897 7.39253 7.17786 7.39934 7.12656 7.39934V9.39934C7.59055 9.39934 8.06067 9.27182 8.45373 8.94499L7.17502 7.40717ZM7.12656 7.39934C7.08315 7.39934 7.07217 7.39332 7.0824 7.39683C7.08746 7.39857 7.0958 7.40202 7.10591 7.40792C7.11608 7.41386 7.1254 7.42074 7.1332 7.42774L5.79762 8.91644C6.18508 9.26405 6.65978 9.39934 7.12656 9.39934V7.39934ZM7.13298 7.42754C7.15758 7.4496 7.17755 7.4736 7.1926 7.49672C7.20737 7.51942 7.2147 7.53706 7.21766 7.5454C7.2227 7.5596 7.21197 7.53746 7.21197 7.45849H5.21197C5.21197 7.94206 5.33941 8.5056 5.79783 8.91663L7.13298 7.42754ZM7.21197 7.45849V6.40203H5.21197V7.45849H7.21197ZM7.21197 6.40203C7.21197 6.32308 7.2227 6.30091 7.21767 6.31507C7.21471 6.3234 7.20739 6.34106 7.1926 6.36378C7.17753 6.38693 7.15751 6.41099 7.13282 6.43312L5.79799 4.94375C5.33933 5.35482 5.21197 5.91866 5.21197 6.40203H7.21197ZM7.13312 6.43285C7.12532 6.43984 7.11601 6.44672 7.10585 6.45265C7.09575 6.45855 7.08741 6.46199 7.08237 6.46372C7.07216 6.46723 7.08315 6.46121 7.12656 6.46121V4.46121C6.65978 4.46121 6.18514 4.59649 5.79769 4.94401L7.13312 6.43285ZM7.12656 6.46121C7.18278 6.46121 7.20916 6.46832 7.21445 6.46995C7.21702 6.47074 7.21545 6.47047 7.21109 6.46821C7.20664 6.46591 7.20135 6.4626 7.19612 6.45849L8.43263 4.88653C8.04021 4.57785 7.57804 4.46121 7.12656 4.46121V6.46121ZM7.19603 6.45842C7.16993 6.43788 7.13375 6.39873 7.10793 6.3428C7.08326 6.28936 7.08303 6.25314 7.08303 6.25455H9.08303C9.08303 5.73041 8.87518 5.23472 8.43272 4.8866L7.19603 6.45842ZM7.08303 6.25455C7.08303 6.25213 7.08246 6.1983 7.10649 6.11657C7.13111 6.03279 7.19345 5.8815 7.34508 5.74487L8.68386 7.2307C9.06214 6.88985 9.08303 6.43005 9.08303 6.25455H7.08303ZM7.34475 5.74517C7.46709 5.63484 7.5901 5.58823 7.6623 5.56874C7.73317 5.5496 7.78 5.54958 7.78581 5.54958V7.54958C7.97307 7.54958 8.36016 7.52262 8.68419 7.2304L7.34475 5.74517ZM7.78581 5.54958C7.78996 5.54958 7.82128 5.54966 7.87071 5.56031C7.91985 5.57091 8.0052 5.5959 8.10174 5.65674C8.20381 5.72105 8.30554 5.81782 8.38049 5.94949C8.45413 6.07884 8.48087 6.20473 8.48675 6.30157L6.49043 6.42286C6.51218 6.7808 6.69225 7.13251 7.03546 7.34879C7.31583 7.52547 7.60884 7.54958 7.78581 7.54958V5.54958ZM8.48809 6.33035C8.47996 6.07546 8.41156 5.70953 8.1248 5.40616C7.82327 5.08717 7.43962 5.0034 7.14944 5.0034V7.0034C7.07772 7.0034 6.85984 6.97942 6.67137 6.78004C6.49766 6.59627 6.4896 6.40974 6.4891 6.39407L8.48809 6.33035ZM7.14944 5.0034C6.83839 5.0034 6.43528 5.10082 6.1341 5.45095C5.85771 5.77226 5.80647 6.14886 5.80647 6.4021H7.80647C7.80647 6.40408 7.80662 6.44244 7.78917 6.50329C7.77089 6.56705 7.73148 6.66085 7.65032 6.7552C7.46345 6.97243 7.23183 7.0034 7.14944 7.0034V5.0034ZM5.80647 6.4021V7.45855H7.80647V6.4021H5.80647ZM5.80647 7.45855C5.80647 7.71399 5.85902 8.09234 6.13869 8.41383C6.44154 8.76196 6.84446 8.85715 7.15328 8.85715V6.85715C7.23085 6.85715 7.46036 6.8859 7.64762 7.10115C7.72949 7.19525 7.76974 7.28947 7.78858 7.35443C7.80652 7.41633 7.80647 7.45573 7.80647 7.45855H5.80647ZM9.54217 7.53911C9.57154 7.51372 9.62169 7.4775 9.69419 7.44785C9.76894 7.41728 9.85395 7.39934 9.94269 7.39934V9.39934C10.3151 9.39934 10.6241 9.24752 10.85 9.05223L9.54217 7.53911ZM9.94269 7.39934C10.0447 7.39934 10.194 7.42261 10.3471 7.51551C10.5022 7.60965 10.5971 7.73636 10.6487 7.84073L8.85564 8.72674C8.94531 8.90821 9.09096 9.09271 9.3096 9.22538C9.52622 9.35681 9.75172 9.39934 9.94269 9.39934V7.39934ZM10.6493 7.84209L10.1273 6.78161L8.33294 7.66491L8.85497 8.72538L10.6493 7.84209ZM9.23013 6.22326H8.97859V8.22326H9.23013V6.22326ZM7.97859 7.22326V8.18409H9.97859V7.22326H7.97859ZM7.97859 8.18409C7.97859 8.04832 8.01331 7.88928 8.10657 7.73874C8.19701 7.59274 8.31147 7.50461 8.39751 7.45579L9.38436 9.19537C9.71853 9.0058 9.97859 8.64623 9.97859 8.18409H7.97859ZM8.39624 7.45652C8.51767 7.38739 8.6261 7.37541 8.68134 7.37541V9.37541C8.89915 9.37541 9.14727 9.33033 9.38563 9.19465L8.39624 7.45652ZM8.68134 7.37541C8.73667 7.37541 8.84508 7.38742 8.96648 7.45653L7.97702 9.19463C8.21524 9.33024 8.46333 9.37541 8.68134 9.37541V7.37541ZM8.96571 7.4561C9.05124 7.50469 9.16562 7.59265 9.25608 7.73868C9.34942 7.88934 9.38409 8.04843 9.38409 8.18409H7.38409C7.38409 8.64652 7.64436 9.00565 7.97779 9.19507L8.96571 7.4561ZM9.38409 8.18409V5.64851H7.38409V8.18409H9.38409ZM9.38409 5.64851C9.38409 5.73874 9.3683 5.83961 9.32826 5.942C9.28823 6.04438 9.23143 6.12911 9.17036 6.19527L7.70076 4.8387C7.49598 5.06055 7.38409 5.34657 7.38409 5.64851H9.38409ZM9.17067 6.19494C9.09787 6.27387 9.00203 6.3459 8.88497 6.3956C8.76914 6.44478 8.65839 6.46118 8.56703 6.46118V4.46118C8.25119 4.46118 7.93518 4.58452 7.70046 4.83903L9.17067 6.19494ZM8.56703 6.46118H9.35584V4.46118H8.56703V6.46118ZM9.35584 6.46118C9.39642 6.46118 9.42621 6.46351 9.44661 6.46616C9.46701 6.46881 9.4759 6.47151 9.47566 6.47144C9.47325 6.47071 9.43378 6.45768 9.38584 6.41405C9.36282 6.3931 9.34277 6.36945 9.32657 6.34488C9.31056 6.32059 9.301 6.2995 9.2957 6.28502C9.28568 6.25767 9.29328 6.2611 9.29328 6.31431H11.2933C11.2933 5.85022 11.1614 5.32573 10.732 4.93489C10.3204 4.56032 9.80039 4.46118 9.35584 4.46118V6.46118ZM9.29328 6.31431C9.29328 6.40418 9.27596 6.39078 9.30913 6.33257C9.32642 6.30222 9.35165 6.27046 9.38363 6.24308C9.41498 6.21625 9.44223 6.20266 9.45582 6.19714L10.2086 8.05008C10.5549 7.90937 10.851 7.66637 11.0469 7.32267C11.2337 6.99469 11.2933 6.63907 11.2933 6.31431H9.29328ZM8.94776 7.59028L9.41266 8.47137L11.1815 7.53803L10.7166 6.65694L8.94776 7.59028ZM9.4703 8.5672C9.3413 8.37759 9.31612 8.18973 9.31612 8.07643H11.3161C11.3161 7.9048 11.2782 7.66901 11.1239 7.44219L9.4703 8.5672ZM9.31612 8.07643C9.31612 7.76611 9.48826 7.58564 9.5427 7.53865L10.8495 9.05269C11.0639 8.8676 11.3161 8.54099 11.3161 8.07643H9.31612ZM12.3288 7.45652C12.4503 7.3874 12.5587 7.37541 12.6139 7.37541V9.37541C12.8317 9.37541 13.0799 9.33033 13.3182 9.19465L12.3288 7.45652ZM12.6139 7.37541C12.6693 7.37541 12.7776 7.38741 12.8991 7.45653L11.9096 9.19463C12.1479 9.33026 12.396 9.37541 12.6139 9.37541V7.37541ZM12.8983 7.4561C12.9838 7.50469 13.0982 7.59265 13.1887 7.73868C13.282 7.88934 13.3167 8.04844 13.3167 8.18409H11.3167C11.3167 8.64651 11.577 9.00564 11.9104 9.19507L12.8983 7.4561ZM13.3167 8.18409V6.68905H11.3167V8.18409H13.3167ZM11.444 6.20074L11.0782 6.85454L12.8235 7.83116L13.1894 7.17736L11.444 6.20074ZM11.0786 6.85384C11.1304 6.76144 11.2214 6.64958 11.365 6.56579C11.5083 6.48219 11.6493 6.45845 11.7527 6.45845V8.45845C11.945 8.45845 12.1634 8.41546 12.3728 8.29333C12.5825 8.17102 12.7281 8.00136 12.8231 7.83186L11.0786 6.85384ZM11.7527 6.45845C11.8614 6.45845 12.0139 6.48419 12.1676 6.57931C12.3215 6.67462 12.4134 6.80044 12.4625 6.89985L10.6694 7.78586C10.7567 7.96235 10.8986 8.14597 11.1148 8.27981C11.3307 8.41346 11.5576 8.45845 11.7527 8.45845V6.45845ZM12.4525 6.88018L12.0905 6.18649L10.3174 7.11183L10.6794 7.80552L12.4525 6.88018ZM10.2039 6.64916V8.18409H12.2039V6.64916H10.2039ZM10.2039 8.18409C10.2039 8.04812 10.2387 7.88908 10.332 7.73863C10.4224 7.59276 10.5367 7.5047 10.6227 7.45591L11.6099 9.19526C11.9436 9.00585 12.2039 8.6465 12.2039 8.18409H10.2039ZM10.6216 7.45652C10.743 7.38739 10.8514 7.37541 10.9067 7.37541V9.37541C11.1245 9.37541 11.3726 9.33033 11.611 9.19465L10.6216 7.45652ZM10.9067 7.37541C10.962 7.37541 11.0704 7.38742 11.1918 7.45653L10.2024 9.19463C10.4406 9.33024 10.6887 9.37541 10.9067 9.37541V7.37541ZM11.1911 7.4561C11.2766 7.50469 11.391 7.59265 11.4814 7.73868C11.5748 7.88934 11.6094 8.04844 11.6094 8.18409H9.60944C9.60944 8.64651 9.8697 9.00564 10.2031 9.19507L11.1911 7.4561ZM11.6094 8.18409V5.77213H9.60944V8.18409H11.6094ZM11.6094 5.77213C11.6094 5.83539 11.5894 6.08133 11.3572 6.28643L10.0332 4.78743C9.6866 5.09356 9.60944 5.49629 9.60944 5.77213H11.6094ZM11.3572 6.28646C11.2924 6.34367 11.2145 6.39067 11.128 6.42163C11.0429 6.45207 10.966 6.46121 10.9067 6.46121V4.46121C10.6052 4.46121 10.2918 4.559 10.0332 4.7874L11.3572 6.28646ZM10.9067 6.46121C10.9143 6.46121 10.8945 6.46205 10.8558 6.45407C10.8177 6.44622 10.742 6.42585 10.6525 6.3721L11.6829 4.65795C11.3975 4.48638 11.0981 4.46121 10.9067 4.46121V6.46121ZM10.6521 6.37186C10.5888 6.33374 10.5453 6.29578 10.5203 6.27175C10.4947 6.2471 10.4793 6.22807 10.4732 6.2203C10.4625 6.20657 10.4686 6.21188 10.4893 6.25002L12.2462 5.2943C12.1677 5.14998 11.9937 4.84499 11.6833 4.65819L10.6521 6.37186ZM10.4904 6.25204L10.8829 6.96962L12.6376 6.00987L12.2451 5.29228L10.4904 6.25204ZM12.6376 6.96962L13.0301 6.25204L11.2754 5.29228L10.8829 6.00987L12.6376 6.96962ZM13.0315 6.24946C13.0522 6.21146 13.0581 6.20633 13.0473 6.22026C13.0412 6.22814 13.0256 6.2473 12.9999 6.27207C12.9748 6.29622 12.931 6.33432 12.8673 6.37251L11.8383 4.65754C11.5268 4.84449 11.3525 5.1504 11.274 5.29486L13.0315 6.24946ZM12.8684 6.37186C12.7787 6.42586 12.7027 6.44625 12.6647 6.45408C12.626 6.46205 12.6062 6.46121 12.6139 6.46121V4.46121C12.4228 4.46121 12.1229 4.48628 11.8373 4.65819L12.8684 6.37186ZM12.6139 6.46121C12.5546 6.46121 12.4776 6.45207 12.3926 6.42163C12.3061 6.39067 12.2282 6.34367 12.1634 6.28646L13.4873 4.7874C13.2287 4.559 12.9154 4.46121 12.6139 4.46121V6.46121ZM12.1632 6.28625C11.9313 6.08132 11.9111 5.83569 11.9111 5.77213H13.9111C13.9111 5.49599 13.8338 5.09356 13.4876 4.78761L12.1632 6.28625ZM11.9111 5.77213V8.18409H13.9111V5.77213H11.9111ZM11.9111 8.1846C11.9111 8.04854 11.9458 7.88942 12.039 7.7389C12.1294 7.59298 12.2437 7.5049 12.3295 7.45612L13.3175 9.19505C13.651 9.00558 13.9114 8.64617 13.9111 8.18357L11.9111 8.1846Z" fill="#E2087D" mask="url(#path-1-inside-1_59_4)"/>
</svg>
