<svg width="16" height="16" viewBox="0 0 16 16" fill="none" xmlns="http://www.w3.org/2000/svg">
<path d="M5.5719 5.82802C5.57028 5.82368 5.56862 5.81933 5.56684 5.81502C5.48 5.60068 5.27647 5.46228 5.04822 5.46228C5.04803 5.46228 5.04781 5.46228 5.04759 5.46228C4.81909 5.46253 4.61556 5.60141 4.52909 5.8161C4.52765 5.81965 4.52628 5.82323 4.52494 5.82682L2.9995 9.89251C2.90734 10.1381 3.02878 10.413 3.27072 10.5065C3.51266 10.6001 3.78347 10.4768 3.87559 10.2312L4.14053 9.52509H5.9444L6.20643 10.2298C6.27728 10.4204 6.45562 10.5378 6.64506 10.5378C6.70006 10.5378 6.756 10.5279 6.8105 10.507C7.05268 10.4142 7.17497 10.1397 7.08353 9.89385L5.5719 5.82802ZM4.49759 8.57349L5.04659 7.11029L5.59059 8.57349H4.49759Z" fill="#585757"/>
<path d="M12 5.46231C11.7411 5.46231 11.5313 5.67535 11.5313 5.93813V10.0619C11.5313 10.3246 11.7411 10.5377 12 10.5377C12.2589 10.5377 12.4688 10.3246 12.4688 10.0619V5.93813C12.4688 5.67535 12.2589 5.46231 12 5.46231Z" fill="#585757"/>
<path d="M9.29368 5.46231H8.1625C8.03793 5.46231 7.91846 5.51265 7.8305 5.6022C7.7429 5.6914 7.69375 5.81223 7.69375 5.93813V10.0619C7.69375 10.3246 7.90362 10.5377 8.1625 10.5377C8.42137 10.5377 8.63125 10.3246 8.63125 10.0619V8.74389C8.86924 8.74262 9.14143 8.74142 9.29368 8.74142C10.1967 8.74142 10.9313 8.00593 10.9313 7.10188C10.9313 6.19783 10.1967 5.46231 9.29368 5.46231ZM9.29368 7.78975C9.14199 7.78975 8.8734 7.79096 8.63653 7.7922C8.63528 7.54372 8.63334 6.67326 8.63262 6.41394H9.29365C9.67318 6.41394 9.99381 6.72897 9.99381 7.10185C9.99381 7.47473 9.67318 7.78975 9.29368 7.78975Z" fill="#585757"/>
<path d="M15.7656 9.39519L14.7199 8.78234C14.7531 8.50738 14.7693 8.24917 14.7693 8.00003C14.7693 7.75089 14.7531 7.49265 14.7199 7.21773L15.7656 6.60487C15.8733 6.54178 15.9518 6.43786 15.984 6.31596C16.0162 6.19405 15.9994 6.06419 15.9372 5.95491L13.7135 2.04515C13.584 1.81759 13.2974 1.73965 13.0731 1.87097L12.0317 2.48129C11.6209 2.1728 11.1724 1.91164 10.6925 1.70136V0.475817C10.6925 0.213039 10.4826 0 10.2237 0H5.77628C5.5174 0 5.30753 0.213039 5.30753 0.475817V1.70136C4.82769 1.91161 4.37922 2.17283 3.96828 2.48129L2.92694 1.87101C2.81928 1.80791 2.69138 1.79082 2.57125 1.82346C2.45116 1.85613 2.34878 1.93584 2.28663 2.04515L0.0628773 5.95484C-0.0665601 6.18241 0.0102523 6.47342 0.23444 6.60481L1.28013 7.21766C1.24694 7.49262 1.23069 7.75083 1.23069 8C1.23069 8.24917 1.24694 8.50738 1.28013 8.78234L0.23444 9.39519C0.0102523 9.52658 -0.0665601 9.81759 0.0628773 10.0452L2.28659 13.9548C2.34875 14.0641 2.45113 14.1439 2.57122 14.1765C2.69131 14.2092 2.81922 14.1921 2.92691 14.129L3.96828 13.5187C4.37919 13.8272 4.82769 14.0884 5.30753 14.2986V15.5242C5.30753 15.787 5.5174 16 5.77628 16H10.2237C10.4826 16 10.6925 15.787 10.6925 15.5242V14.2986C11.1724 14.0884 11.6209 13.8272 12.0317 13.5187L13.0731 14.129C13.2974 14.2604 13.584 14.1824 13.7135 13.9548L15.9372 10.0452C15.9993 9.93588 16.0162 9.80598 15.984 9.68411C15.9519 9.56223 15.8733 9.45825 15.7656 9.39519ZM13.1359 13.067L12.2272 12.5344C12.0582 12.4354 11.8464 12.453 11.6955 12.5786C11.2137 12.9799 10.6628 13.3009 10.0581 13.5329C9.87568 13.6028 9.75499 13.7801 9.75499 13.978V15.0484H6.24503V13.978C6.24503 13.7801 6.12434 13.6028 5.94197 13.5329C5.33728 13.3009 4.78637 12.9799 4.3045 12.5786C4.15359 12.453 3.94184 12.4353 3.77281 12.5344L2.86413 13.067L1.10916 9.9814L2.02341 9.44556C2.19213 9.34669 2.283 9.15221 2.25169 8.95703C2.19553 8.60695 2.16822 8.2939 2.16822 8C2.16822 7.70607 2.19553 7.39305 2.25169 7.04297C2.283 6.84779 2.19213 6.65331 2.02341 6.55444L1.10916 6.0186L2.86413 2.93303L3.77281 3.46556C3.94181 3.5646 4.15359 3.54702 4.3045 3.42138C4.78637 3.0201 5.33731 2.69905 5.94197 2.46711C6.12434 2.39713 6.24503 2.21991 6.24503 2.022V0.951633H9.75499V2.02203C9.75499 2.21994 9.87568 2.39716 10.0581 2.46714C10.6628 2.69909 11.2137 3.02017 11.6955 3.42138C11.8464 3.54702 12.0582 3.56463 12.2272 3.46559L13.1359 2.93303L14.8909 6.01857L13.9766 6.55441C13.8079 6.65328 13.717 6.84776 13.7483 7.04294C13.8045 7.39302 13.8318 7.70607 13.8318 7.99997C13.8318 8.2939 13.8045 8.60692 13.7483 8.95699C13.717 9.15217 13.8079 9.34669 13.9766 9.44553L14.8909 9.98136L13.1359 13.067Z" fill="#585757"/>
</svg>
