<svg width="12" height="6" viewBox="0 0 12 6" fill="none" xmlns="http://www.w3.org/2000/svg">
<mask id="path-1-inside-1_58_40" fill="white">
<path d="M11.853 0.126561C11.6569 -0.0421057 11.3388 -0.0421057 11.1427 0.126561L6.00027 4.95624L0.857279 0.126561C0.66122 -0.0421057 0.343103 -0.0421057 0.147044 0.126561C-0.0490147 0.295228 -0.0490147 0.568788 0.147044 0.737438L5.61965 5.87701C5.72417 5.96692 5.86321 6.00544 5.99976 5.99946C6.13678 6.00544 6.27535 5.96692 6.37988 5.87701L11.853 0.736985C12.049 0.568351 12.049 0.295228 11.853 0.126561Z"/>
</mask>
<path d="M11.853 0.126561C11.6569 -0.0421057 11.3388 -0.0421057 11.1427 0.126561L6.00027 4.95624L0.857279 0.126561C0.66122 -0.0421057 0.343103 -0.0421057 0.147044 0.126561C-0.0490147 0.295228 -0.0490147 0.568788 0.147044 0.737438L5.61965 5.87701C5.72417 5.96692 5.86321 6.00544 5.99976 5.99946C6.13678 6.00544 6.27535 5.96692 6.37988 5.87701L11.853 0.736985C12.049 0.568351 12.049 0.295228 11.853 0.126561Z" fill="#585757"/>
<path d="M11.853 0.126561L12.5051 -0.631517L11.853 0.126561ZM11.1427 0.126561L10.4906 -0.631517L10.474 -0.617295L10.4581 -0.602366L11.1427 0.126561ZM6.00027 4.95624L5.31572 5.68521L6.00031 6.32809L6.68486 5.68517L6.00027 4.95624ZM0.857279 0.126561L1.54183 -0.602401L1.52595 -0.617311L1.50944 -0.631516L0.857279 0.126561ZM0.147044 0.126561L-0.505121 -0.631516H-0.505121L0.147044 0.126561ZM0.147044 0.737438L0.831624 0.0084999L0.815716 -0.00643978L0.799172 -0.0206713L0.147044 0.737438ZM5.61965 5.87701L4.93507 6.60595L4.951 6.62091L4.96756 6.63516L5.61965 5.87701ZM5.99976 5.99946L6.04332 5.00041L5.99969 4.99851L5.95605 5.00042L5.99976 5.99946ZM6.37988 5.87701L7.03196 6.63516L7.04853 6.62091L7.06446 6.60595L6.37988 5.87701ZM11.853 0.736985L11.2008 -0.0211237L11.1843 -0.00689272L11.1684 0.00804636L11.853 0.736985ZM12.5051 -0.631517C11.9341 -1.12275 11.0616 -1.12275 10.4906 -0.631517L11.7949 0.884639C11.6909 0.974144 11.5799 1.00006 11.4978 1.00006C11.4158 1.00006 11.3048 0.974144 11.2008 0.884639L12.5051 -0.631517ZM10.4581 -0.602366L5.31568 4.22732L6.68486 5.68517L11.8273 0.855488L10.4581 -0.602366ZM6.68483 4.22728L1.54183 -0.602401L0.172725 0.855524L5.31572 5.68521L6.68483 4.22728ZM1.50944 -0.631516C0.938436 -1.12275 0.0658861 -1.12275 -0.505121 -0.631516L0.799209 0.884638C0.695156 0.974154 0.58423 1.00006 0.502161 1.00006C0.420093 1.00006 0.309166 0.974154 0.205114 0.884638L1.50944 -0.631516ZM-0.505121 -0.631516C-1.16494 -0.063884 -1.165 0.927889 -0.505084 1.49555L0.799172 -0.0206713C0.910482 0.0750781 1 0.236409 1 0.432006C1 0.627598 0.910487 0.788907 0.799209 0.884638L-0.505121 -0.631516ZM-0.537536 1.46638L4.93507 6.60595L6.30423 5.14808L0.831624 0.0084999L-0.537536 1.46638ZM4.96756 6.63516C5.29897 6.92021 5.7015 7.01347 6.04348 6.99851L5.95605 5.00042C6.02493 4.9974 6.14938 5.01363 6.27173 5.11887L4.96756 6.63516ZM5.9562 6.99851C6.29888 7.01345 6.70077 6.92002 7.03196 6.63516L5.7278 5.11887C5.84993 5.01382 5.97468 4.99742 6.04332 5.00041L5.9562 6.99851ZM7.06446 6.60595L12.5376 1.46592L11.1684 0.00804636L5.6953 5.14808L7.06446 6.60595ZM12.5051 1.49509C13.165 0.927423 13.1649 -0.0639145 12.5051 -0.631517L11.2008 0.884639C11.0899 0.789206 11 0.627933 11 0.431809C11 0.235679 11.0898 0.0743566 11.2008 -0.0211237L12.5051 1.49509Z" fill="#585757" mask="url(#path-1-inside-1_58_40)"/>
</svg>
