<svg width="32" height="24" viewBox="0 0 32 24" class="burger-color" xmlns="http://www.w3.org/2000/svg" >
<path d="M30.6667 13.3848H1.33333C0.597331 13.3848 0 12.7645 0 12.0002C0 11.2359 0.597331 10.6155 1.33333 10.6155H30.6667C31.4027 10.6155 32 11.2359 32 12.0002C32 12.7645 31.4027 13.3848 30.6667 13.3848Z" fill="#E2087D" />
<path d="M30.6667 2.76924H1.33333C0.597331 2.76924 0 2.14894 0 1.38462C0 0.620308 0.597331 0 1.33333 0H30.6667C31.4027 0 32 0.620308 32 1.38462C32 2.14894 31.4027 2.76924 30.6667 2.76924Z" fill="#E2087D"  />
<path d="M30.6667 24H1.33333C0.597331 24 0 23.3797 0 22.6154C0 21.8511 0.597331 21.2308 1.33333 21.2308H30.6667C31.4027 21.2308 32 21.8511 32 22.6154C32 23.3797 31.4027 24 30.6667 24Z" fill="#E2087D"  />
</svg>
