<svg width="24" height="24" viewBox="0 0 24 24" fill="none" xmlns="http://www.w3.org/2000/svg">
<rect width="24" height="24" rx="2" fill="#FAF8F8"/>
<path d="M20 6.05458C20.0005 5.64834 19.8787 5.25111 19.65 4.91319C19.4214 4.57527 19.0962 4.31187 18.7157 4.15635C18.3351 4.00083 17.9164 3.96018 17.5124 4.03956C17.1084 4.11894 16.7374 4.31478 16.4463 4.60226L6.6873 14.2263C6.62295 14.2898 6.57711 14.3692 6.55458 14.4562L5.74416 17.5865C5.72184 17.6727 5.72325 17.7632 5.74823 17.8486C5.7732 17.9341 5.82085 18.0115 5.88625 18.0727C5.95165 18.134 6.03243 18.1769 6.12027 18.1971C6.20811 18.2173 6.29981 18.214 6.38593 18.1875L9.42507 17.2551C9.5035 17.231 9.57482 17.1885 9.63291 17.1312L19.392 7.50705C19.5856 7.31662 19.7391 7.09019 19.8435 6.84088C19.9479 6.59156 20.0011 6.3243 20 6.05458ZM9.00445 16.337L6.95094 16.9671L7.50254 14.8364L16.0428 6.41409L17.5546 7.9049L9.00445 16.337ZM18.6751 6.80006L18.2715 7.198L16.7597 5.70707L17.1632 5.30912C17.3637 5.11141 17.6356 5.00034 17.9191 5.00034C18.2027 5.00034 18.4746 5.11141 18.6751 5.30912C18.8755 5.50684 18.9882 5.77499 18.9882 6.05459C18.9882 6.3342 18.8755 6.60235 18.6751 6.80006ZM14.9585 20H4.50693C4.37248 20 4.24354 19.9473 4.14848 19.8536C4.05341 19.7598 4 19.6327 4 19.5001C4 19.3675 4.05341 19.2403 4.14848 19.1466C4.24354 19.0528 4.37248 19.0001 4.50693 19.0001H14.9585C15.0929 19.0001 15.2219 19.0528 15.3169 19.1466C15.412 19.2403 15.4654 19.3675 15.4654 19.5001C15.4654 19.6327 15.412 19.7598 15.3169 19.8536C15.2219 19.9473 15.0929 20 14.9585 20Z" fill="#969494"/>
</svg>
