<svg width="16" height="16" viewBox="0 0 16 16" fill="none" xmlns="http://www.w3.org/2000/svg">
<mask id="path-1-inside-1_58_54" fill="white">
<path d="M8 12.6094C8.43147 12.6094 8.78125 12.2596 8.78125 11.8281C8.78125 11.3967 8.43147 11.0469 8 11.0469C7.56853 11.0469 7.21875 11.3967 7.21875 11.8281C7.21875 12.2596 7.56853 12.6094 8 12.6094Z"/>
<path d="M8 0C3.57863 0 0 3.57803 0 8C0 12.4214 3.57803 16 8 16C12.4214 16 16 12.422 16 8C16 3.57863 12.422 0 8 0ZM8 14.75C4.26947 14.75 1.25 11.731 1.25 8C1.25 4.26947 4.26897 1.25 8 1.25C11.7305 1.25 14.75 4.26897 14.75 8C14.75 11.7305 11.731 14.75 8 14.75Z"/>
<path d="M8 4.01562C6.6215 4.01562 5.5 5.13713 5.5 6.51562C5.5 6.86081 5.77981 7.14062 6.125 7.14062C6.47019 7.14062 6.75 6.86081 6.75 6.51562C6.75 5.82638 7.31075 5.26562 8 5.26562C8.68925 5.26562 9.25 5.82638 9.25 6.51562C9.25 7.20487 8.68925 7.76562 8 7.76562C7.65481 7.76562 7.375 8.04544 7.375 8.39062V9.95312C7.375 10.2983 7.65481 10.5781 8 10.5781C8.34519 10.5781 8.625 10.2983 8.625 9.95312V8.93653C9.70206 8.65831 10.5 7.67841 10.5 6.51562C10.5 5.13713 9.3785 4.01562 8 4.01562Z"/>
</mask>
<path d="M8 12.6094C8.43147 12.6094 8.78125 12.2596 8.78125 11.8281C8.78125 11.3967 8.43147 11.0469 8 11.0469C7.56853 11.0469 7.21875 11.3967 7.21875 11.8281C7.21875 12.2596 7.56853 12.6094 8 12.6094Z" fill="#585757"/>
<path d="M8 0C3.57863 0 0 3.57803 0 8C0 12.4214 3.57803 16 8 16C12.4214 16 16 12.422 16 8C16 3.57863 12.422 0 8 0ZM8 14.75C4.26947 14.75 1.25 11.731 1.25 8C1.25 4.26947 4.26897 1.25 8 1.25C11.7305 1.25 14.75 4.26897 14.75 8C14.75 11.7305 11.731 14.75 8 14.75Z" fill="#585757"/>
<path d="M8 4.01562C6.6215 4.01562 5.5 5.13713 5.5 6.51562C5.5 6.86081 5.77981 7.14062 6.125 7.14062C6.47019 7.14062 6.75 6.86081 6.75 6.51562C6.75 5.82638 7.31075 5.26562 8 5.26562C8.68925 5.26562 9.25 5.82638 9.25 6.51562C9.25 7.20487 8.68925 7.76562 8 7.76562C7.65481 7.76562 7.375 8.04544 7.375 8.39062V9.95312C7.375 10.2983 7.65481 10.5781 8 10.5781C8.34519 10.5781 8.625 10.2983 8.625 9.95312V8.93653C9.70206 8.65831 10.5 7.67841 10.5 6.51562C10.5 5.13713 9.3785 4.01562 8 4.01562Z" fill="#585757"/>
<path d="M8.625 8.93653L8.3749 7.96831L7.625 8.16202V8.93653H8.625ZM8 13.6094C8.98376 13.6094 9.78125 12.8119 9.78125 11.8281H7.78125C7.78125 11.7073 7.87919 11.6094 8 11.6094V13.6094ZM9.78125 11.8281C9.78125 10.8444 8.98376 10.0469 8 10.0469V12.0469C7.87919 12.0469 7.78125 11.9489 7.78125 11.8281H9.78125ZM8 10.0469C7.01624 10.0469 6.21875 10.8444 6.21875 11.8281H8.21875C8.21875 11.9489 8.12081 12.0469 8 12.0469V10.0469ZM6.21875 11.8281C6.21875 12.8119 7.01624 13.6094 8 13.6094V11.6094C8.12081 11.6094 8.21875 11.7073 8.21875 11.8281H6.21875ZM8 -1C3.02639 -1 -1 3.0257 -1 8H1C1 4.13036 4.13086 1 8 1V-1ZM-1 8C-1 12.9736 3.0257 17 8 17V15C4.13036 15 1 11.8691 1 8H-1ZM8 17C12.9736 17 17 12.9743 17 8H15C15 11.8696 11.8691 15 8 15V17ZM17 8C17 3.02639 12.9743 -1 8 -1V1C11.8696 1 15 4.13086 15 8H17ZM8 13.75C4.82171 13.75 2.25 11.1787 2.25 8H0.25C0.25 12.2834 3.71723 15.75 8 15.75V13.75ZM2.25 8C2.25 4.82171 4.8213 2.25 8 2.25V0.25C3.71664 0.25 0.25 3.71723 0.25 8H2.25ZM8 2.25C11.1783 2.25 13.75 4.8213 13.75 8H15.75C15.75 3.71664 12.2828 0.25 8 0.25V2.25ZM13.75 8C13.75 11.1783 11.1787 13.75 8 13.75V15.75C12.2834 15.75 15.75 12.2828 15.75 8H13.75ZM8 3.01562C6.06922 3.01562 4.5 4.58484 4.5 6.51562H6.5C6.5 5.68941 7.17378 5.01562 8 5.01562V3.01562ZM4.5 6.51562C4.5 7.4131 5.22753 8.14062 6.125 8.14062V6.14062C6.3321 6.14062 6.5 6.30853 6.5 6.51562H4.5ZM6.125 8.14062C7.02247 8.14062 7.75 7.4131 7.75 6.51562H5.75C5.75 6.30853 5.9179 6.14062 6.125 6.14062V8.14062ZM7.75 6.51562C7.75 6.37866 7.86303 6.26562 8 6.26562V4.26562C6.75847 4.26562 5.75 5.27409 5.75 6.51562H7.75ZM8 6.26562C8.13696 6.26562 8.25 6.37866 8.25 6.51562H10.25C10.25 5.27409 9.24154 4.26562 8 4.26562V6.26562ZM8.25 6.51562C8.25 6.65259 8.13696 6.76562 8 6.76562V8.76562C9.24154 8.76562 10.25 7.75716 10.25 6.51562H8.25ZM8 6.76562C7.10253 6.76562 6.375 7.49315 6.375 8.39062H8.375C8.375 8.59772 8.2071 8.76562 8 8.76562V6.76562ZM6.375 8.39062V9.95312H8.375V8.39062H6.375ZM6.375 9.95312C6.375 10.8506 7.10253 11.5781 8 11.5781V9.57812C8.2071 9.57812 8.375 9.74603 8.375 9.95312H6.375ZM8 11.5781C8.89747 11.5781 9.625 10.8506 9.625 9.95312H7.625C7.625 9.74603 7.7929 9.57812 8 9.57812V11.5781ZM9.625 9.95312V8.93653H7.625V9.95312H9.625ZM8.8751 9.90475C10.3819 9.51551 11.5 8.14632 11.5 6.51562H9.5C9.5 7.21049 9.02218 7.80111 8.3749 7.96831L8.8751 9.90475ZM11.5 6.51562C11.5 4.58484 9.93079 3.01562 8 3.01562V5.01562C8.82621 5.01562 9.5 5.68941 9.5 6.51562H11.5Z" fill="#585757" mask="url(#path-1-inside-1_58_54)"/>
</svg>
