<svg width="16" height="16" viewBox="0 0 16 16" fill="none" xmlns="http://www.w3.org/2000/svg">
<path d="M11.0221 11.0818L11.3496 10.726C12.3515 9.63745 12.9639 8.20218 12.964 6.62462L11.0221 11.0818ZM11.0221 11.0818L11.3668 11.421M11.0221 11.0818L11.3668 11.421M11.3668 11.421L15.4976 15.4857C15.4987 15.4868 15.4992 15.4875 15.4994 15.4878L15.4998 15.4884C15.4999 15.4886 15.5 15.4892 15.5 15.4899C15.5 15.4904 15.4999 15.4908 15.4999 15.4911C15.4998 15.4912 15.4998 15.4913 15.4998 15.4914L15.4994 15.492C15.4992 15.4922 15.4987 15.493 15.4976 15.4941L15.4971 15.4945C15.4943 15.4973 15.4898 15.5 15.4819 15.5C15.4741 15.5 15.4696 15.4973 15.4667 15.4945L15.4666 15.4943L11.3195 11.4134L11.0035 11.1024M11.3668 11.421L11.0035 11.1024M11.0035 11.1024L10.6569 11.379M11.0035 11.1024L10.6569 11.379M10.6569 11.379C9.5851 12.2344 8.22091 12.7491 6.73171 12.7491C3.28231 12.7491 0.5 9.99974 0.5 6.62455C0.5 3.24936 3.28231 0.5 6.73171 0.5C10.1811 0.5 12.9634 3.24932 12.964 6.62455L10.6569 11.379ZM0.535769 6.62455C0.535769 10.004 3.31737 12.7299 6.73171 12.7299C10.1461 12.7299 12.9277 10.004 12.9277 6.62455C12.9277 3.24514 10.1461 0.519226 6.73171 0.519226C3.31737 0.519226 0.535769 3.24514 0.535769 6.62455Z" fill="#969494" stroke="#969494"/>
</svg>
