<svg width="24" height="24" viewBox="0 0 24 24" fill="none" xmlns="http://www.w3.org/2000/svg">
<rect width="24" height="24" rx="2" fill="#FAF8F8"/>
<path fill-rule="evenodd" clip-rule="evenodd" d="M14.7061 8.25261L14.7058 8.25263C14.3996 8.27396 14.1421 8.04914 14.1208 7.75154L14.1208 7.75099L14.1207 7.75045C14.0967 7.44911 14.3235 7.18779 14.6219 7.16647L14.6222 7.16645L18.4169 6.88093L18.4172 6.88091C18.7185 6.85691 18.9798 7.08362 19.0012 7.38207L19.0012 7.38258L19.2867 11.1768L19.2867 11.1771L19.2867 11.1773C19.3106 11.4776 19.085 11.7371 18.7846 11.7614C18.7212 11.7662 18.5769 11.7511 18.4479 11.677C18.3265 11.6072 18.2168 11.4851 18.2005 11.2601L18.0098 8.73024L13.2994 15.4846L13.299 15.4852C13.2051 15.6163 13.0606 15.6992 12.9027 15.7152L12.9018 15.7153L12.9008 15.7154C12.7441 15.7337 12.5867 15.6765 12.4702 15.5655L12.4701 15.5653L9.64552 12.841L6.99685 16.7111C6.83451 16.9143 6.66919 16.9588 6.53846 16.9544C6.39805 16.9497 6.2813 16.8875 6.23612 16.8565C5.98741 16.6852 5.92396 16.3462 6.09444 16.0985L9.11206 11.6899L9.11229 11.6896C9.20298 11.5562 9.34681 11.471 9.50699 11.4549L9.50821 11.4548L9.50942 11.4547C9.66424 11.4363 9.82387 11.4915 9.93876 11.6037L9.93905 11.604L12.77 14.3347L17.142 8.06897L14.7061 8.25261ZM5.0888 4.5444V18.9112H19.4556C19.7574 18.9112 20 19.1538 20 19.4556C20 19.7574 19.7574 20 19.4556 20H4.5444C4.24263 20 4 19.7574 4 19.4556V4.5444C4 4.24263 4.24263 4 4.5444 4C4.84617 4 5.0888 4.24263 5.0888 4.5444Z" fill="#969494"/>
</svg>
