<svg width="16" height="16" viewBox="0 0 16 16" fill="none" xmlns="http://www.w3.org/2000/svg">
<path d="M12.2127 5.38442C12.2127 5.66928 11.9842 5.90045 11.7022 5.90045H4.29802C4.01589 5.90045 3.78763 5.66924 3.78763 5.38442C3.78763 5.09949 4.01589 4.86828 4.29802 4.86828H11.7022C11.9842 4.86828 12.2127 5.09953 12.2127 5.38442ZM11.7022 7.9472H4.29802C4.01589 7.9472 3.78763 8.17826 3.78763 8.46319C3.78763 8.74816 4.01589 8.97934 4.29802 8.97934H11.7022C11.9842 8.97934 12.2127 8.74816 12.2127 8.46319C12.2127 8.17826 11.9842 7.9472 11.7022 7.9472ZM16 6.70828C16 9.01922 14.5593 11.1874 12.2275 12.4056C10.5053 15.8974 6.56989 16 6.11979 16H6.11952L6.05688 15.999C5.83386 15.9923 5.641 15.8395 5.58071 15.6227C5.52065 15.4061 5.60553 15.1749 5.79197 15.0515C6.52504 14.5672 7.11071 14.0158 7.54191 13.4061C3.34311 13.2063 0 10.2785 0 6.70839C0 3.00922 3.58863 0 8.00002 0C12.4113 0.000230062 16 3.00922 16 6.70828ZM14.9787 6.70828C14.9787 3.57878 11.8478 1.03187 8.00025 1.03187C4.15198 1.03187 1.02146 3.57874 1.02146 6.70828C1.02146 9.83831 4.15217 12.3851 8.00025 12.3851C8.13809 12.3851 8.27532 12.3809 8.41176 12.3742C8.41973 12.3738 8.42804 12.3738 8.43627 12.3738C8.60648 12.3738 8.76682 12.4598 8.86125 12.6042C8.96112 12.7552 8.97425 12.9483 8.89684 13.1123C8.62272 13.6918 8.24964 14.2315 7.7814 14.7271C8.9906 14.3993 10.5442 13.6259 11.3799 11.8064C11.4291 11.6994 11.5136 11.6125 11.6183 11.5603C13.7223 10.5184 14.9787 8.70407 14.9787 6.70828Z" fill="#585757"/>
</svg>
